<?xml version="1.0" encoding="UTF-8" standalone="no"?>
<svg width="15px" height="30px" viewBox="0 0 15 30" version="1.1" xmlns="http://www.w3.org/2000/svg" xmlns:xlink="http://www.w3.org/1999/xlink">
    <!-- Generator: Sketch 3.8.3 (29802) - http://www.bohemiancoding.com/sketch -->
    <title>Shape</title>
    <desc>Created with Sketch.</desc>
    <defs></defs>
    <g id="Page-1" stroke="none" stroke-width="1" fill="none" fill-rule="evenodd">
        <g id="Artboard" transform="translate(-1568.000000, -952.000000)" fill="#FFA300">
            <g id="Group" transform="translate(1555.000000, 947.000000)">
                <g id="Group-2">
                    <g id="Capa_1" transform="translate(13.333333, 5.333333)">
                        <path d="M2.8776912,29.3050798 C2.78847908,29.3050798 2.69945166,29.2890634 2.6130101,29.2543313 C2.29901299,29.1299796 2.12058874,28.8040736 2.19059163,28.4806871 L4.71143434,16.8139387 L0.856103896,16.8139387 C0.598256854,16.8139387 0.359619048,16.6762699 0.237529582,16.4545603 C0.115440115,16.2326708 0.127815296,15.9629121 0.270406926,15.7530798 L10.7265108,0.308809816 C10.9115844,0.0334723926 11.2723117,-0.0759427403 11.5864935,0.0563271984 C11.8979048,0.184638037 12.0706032,0.51198364 11.9980144,0.834110429 L9.48825397,11.8323108 L13.3365657,11.8323108 C13.5931198,11.8323108 13.8275094,11.9685399 13.9523694,12.1864703 C14.0757518,12.4056605 14.0661472,12.6714601 13.9303896,12.8827321 L3.47151515,28.987092 C3.33852814,29.1900859 3.11226551,29.3050798 2.8776912,29.3050798 L2.8776912,29.3050798 Z" id="Shape"></path>
                    </g>
                </g>
            </g>
        </g>
    </g>
</svg>